<mxfile host="app.diagrams.net" modified="2021-06-04T07:37:25.451Z" agent="5.0 (Windows NT 10.0; Win64; x64) AppleWebKit/537.36 (KHTML, like Gecko) Chrome/90.0.4430.212 Safari/537.36" etag="MhnO6j77MERIUvT_jp5i" version="14.7.4" type="github">
  <diagram id="r9jl2GnkTUuPsNxRteA0" name="Page-1">
    <mxGraphModel dx="1695" dy="1594" grid="1" gridSize="10" guides="1" tooltips="1" connect="1" arrows="1" fold="1" page="1" pageScale="1" pageWidth="827" pageHeight="1169" math="0" shadow="0">
      <root>
        <mxCell id="0" />
        <mxCell id="1" parent="0" />
        <mxCell id="TbdAM-hodxdKdu0G4XPy-2" value="&lt;font face=&quot;Times New Roman&quot; style=&quot;font-size: 16px&quot;&gt;&lt;b style=&quot;font-size: 16px&quot;&gt;SCADA&lt;/b&gt;&lt;/font&gt;" style="rounded=1;whiteSpace=wrap;html=1;fontSize=16;glass=0;strokeWidth=1;shadow=1;fillColor=#7EA6E0;" vertex="1" parent="1">
          <mxGeometry x="255" y="-60" width="192.5" height="40" as="geometry" />
        </mxCell>
        <mxCell id="TbdAM-hodxdKdu0G4XPy-4" value="&lt;font face=&quot;Times New Roman&quot; style=&quot;font-size: 14px&quot;&gt;Valor SetPoint Almacenado en el PC&lt;/font&gt;" style="rounded=1;whiteSpace=wrap;html=1;strokeColor=#b85450;fillColor=#f8cecc;" vertex="1" parent="1">
          <mxGeometry x="660" y="90" width="130" height="60" as="geometry" />
        </mxCell>
        <mxCell id="TbdAM-hodxdKdu0G4XPy-8" value="&lt;font face=&quot;Times New Roman&quot; style=&quot;font-size: 14px&quot;&gt;ingreso SetPoint&lt;br&gt;SCADA&lt;/font&gt;" style="shape=parallelogram;perimeter=parallelogramPerimeter;whiteSpace=wrap;html=1;fixedSize=1;fillColor=#A9C4EB;" vertex="1" parent="1">
          <mxGeometry x="621" y="20" width="137.5" height="60" as="geometry" />
        </mxCell>
        <mxCell id="TbdAM-hodxdKdu0G4XPy-11" value="&lt;font face=&quot;Times New Roman&quot; style=&quot;font-size: 14px&quot;&gt;Almacenar Información Ingresada&lt;/font&gt;" style="shape=process;whiteSpace=wrap;html=1;backgroundOutline=1;fillColor=#d5e8d4;strokeColor=#82b366;" vertex="1" parent="1">
          <mxGeometry x="520" y="500" width="120" height="60" as="geometry" />
        </mxCell>
        <mxCell id="TbdAM-hodxdKdu0G4XPy-96" style="edgeStyle=orthogonalEdgeStyle;rounded=0;orthogonalLoop=1;jettySize=auto;html=1;exitX=0.5;exitY=1;exitDx=0;exitDy=0;" edge="1" parent="1" source="TbdAM-hodxdKdu0G4XPy-51" target="TbdAM-hodxdKdu0G4XPy-58">
          <mxGeometry relative="1" as="geometry">
            <Array as="points">
              <mxPoint x="354" y="120" />
              <mxPoint x="500" y="120" />
            </Array>
          </mxGeometry>
        </mxCell>
        <mxCell id="TbdAM-hodxdKdu0G4XPy-51" value="&lt;font face=&quot;Times New Roman&quot; style=&quot;font-size: 14px&quot;&gt;MAIN&lt;/font&gt;" style="rounded=0;whiteSpace=wrap;html=1;fillColor=#C3ABD0;" vertex="1" parent="1">
          <mxGeometry x="294" y="70" width="120" height="40" as="geometry" />
        </mxCell>
        <mxCell id="TbdAM-hodxdKdu0G4XPy-89" style="edgeStyle=orthogonalEdgeStyle;rounded=0;orthogonalLoop=1;jettySize=auto;html=1;exitX=0.5;exitY=1;exitDx=0;exitDy=0;entryX=0.5;entryY=0;entryDx=0;entryDy=0;" edge="1" parent="1" source="TbdAM-hodxdKdu0G4XPy-55" target="TbdAM-hodxdKdu0G4XPy-70">
          <mxGeometry relative="1" as="geometry" />
        </mxCell>
        <mxCell id="TbdAM-hodxdKdu0G4XPy-55" value="&lt;font face=&quot;Times New Roman&quot;&gt;&lt;span style=&quot;font-size: 14px&quot;&gt;Configuración&lt;/span&gt;&lt;br&gt;&lt;span style=&quot;font-size: 14px&quot;&gt;Comunicación&amp;nbsp;Serial&lt;/span&gt;&lt;br&gt;&lt;/font&gt;" style="shape=hexagon;perimeter=hexagonPerimeter2;whiteSpace=wrap;html=1;fixedSize=1;fillColor=#fff2cc;strokeColor=#d6b656;" vertex="1" parent="1">
          <mxGeometry x="100" y="150" width="150" height="60" as="geometry" />
        </mxCell>
        <mxCell id="TbdAM-hodxdKdu0G4XPy-56" value="&lt;font style=&quot;font-size: 14px&quot; face=&quot;Times New Roman&quot;&gt;OxiResult &amp;gt;= 0 &lt;br&gt;And &lt;br&gt;OxiResult &amp;lt;= SpMin&lt;/font&gt;" style="rhombus;whiteSpace=wrap;html=1;fillColor=#dae8fc;strokeColor=#6c8ebf;" vertex="1" parent="1">
          <mxGeometry x="773.5" y="5" width="202.5" height="90" as="geometry" />
        </mxCell>
        <mxCell id="TbdAM-hodxdKdu0G4XPy-68" style="edgeStyle=orthogonalEdgeStyle;rounded=0;orthogonalLoop=1;jettySize=auto;html=1;exitX=1;exitY=0.5;exitDx=0;exitDy=0;entryX=0.5;entryY=0;entryDx=0;entryDy=0;" edge="1" parent="1" source="TbdAM-hodxdKdu0G4XPy-58" target="TbdAM-hodxdKdu0G4XPy-63">
          <mxGeometry relative="1" as="geometry" />
        </mxCell>
        <mxCell id="TbdAM-hodxdKdu0G4XPy-97" style="edgeStyle=orthogonalEdgeStyle;rounded=0;orthogonalLoop=1;jettySize=auto;html=1;exitX=0.25;exitY=1;exitDx=0;exitDy=0;entryX=0.5;entryY=0;entryDx=0;entryDy=0;" edge="1" parent="1" source="TbdAM-hodxdKdu0G4XPy-58" target="TbdAM-hodxdKdu0G4XPy-59">
          <mxGeometry relative="1" as="geometry" />
        </mxCell>
        <mxCell id="TbdAM-hodxdKdu0G4XPy-98" style="edgeStyle=orthogonalEdgeStyle;rounded=0;orthogonalLoop=1;jettySize=auto;html=1;exitX=0.5;exitY=1;exitDx=0;exitDy=0;" edge="1" parent="1" source="TbdAM-hodxdKdu0G4XPy-58" target="TbdAM-hodxdKdu0G4XPy-60">
          <mxGeometry relative="1" as="geometry" />
        </mxCell>
        <mxCell id="TbdAM-hodxdKdu0G4XPy-99" style="edgeStyle=orthogonalEdgeStyle;rounded=0;orthogonalLoop=1;jettySize=auto;html=1;exitX=0.75;exitY=1;exitDx=0;exitDy=0;entryX=0.5;entryY=0;entryDx=0;entryDy=0;" edge="1" parent="1" source="TbdAM-hodxdKdu0G4XPy-58" target="TbdAM-hodxdKdu0G4XPy-61">
          <mxGeometry relative="1" as="geometry">
            <Array as="points">
              <mxPoint x="520" y="180" />
              <mxPoint x="520" y="205" />
              <mxPoint x="630" y="205" />
            </Array>
          </mxGeometry>
        </mxCell>
        <mxCell id="TbdAM-hodxdKdu0G4XPy-100" style="edgeStyle=orthogonalEdgeStyle;rounded=0;orthogonalLoop=1;jettySize=auto;html=1;exitX=0.75;exitY=1;exitDx=0;exitDy=0;entryX=0.5;entryY=0;entryDx=0;entryDy=0;" edge="1" parent="1" source="TbdAM-hodxdKdu0G4XPy-58" target="TbdAM-hodxdKdu0G4XPy-62">
          <mxGeometry relative="1" as="geometry">
            <Array as="points">
              <mxPoint x="530" y="190" />
              <mxPoint x="760" y="190" />
            </Array>
          </mxGeometry>
        </mxCell>
        <mxCell id="TbdAM-hodxdKdu0G4XPy-58" value="&lt;span style=&quot;font-family: &amp;#34;times new roman&amp;#34; ; font-size: 14px&quot;&gt;INICIO&lt;/span&gt;" style="rounded=1;whiteSpace=wrap;html=1;strokeColor=#b85450;fillColor=#f8cecc;" vertex="1" parent="1">
          <mxGeometry x="440" y="140" width="120" height="40" as="geometry" />
        </mxCell>
        <mxCell id="TbdAM-hodxdKdu0G4XPy-59" value="&lt;font face=&quot;Times New Roman&quot;&gt;&lt;span style=&quot;font-size: 14px&quot;&gt;SENSOR&lt;/span&gt;&lt;/font&gt;" style="rounded=1;whiteSpace=wrap;html=1;strokeColor=#b85450;fillColor=#f8cecc;" vertex="1" parent="1">
          <mxGeometry x="310" y="230" width="120" height="40" as="geometry" />
        </mxCell>
        <mxCell id="TbdAM-hodxdKdu0G4XPy-60" value="&lt;font face=&quot;Times New Roman&quot;&gt;&lt;span style=&quot;font-size: 14px&quot;&gt;DATALOGGER&lt;/span&gt;&lt;/font&gt;" style="rounded=1;whiteSpace=wrap;html=1;strokeColor=#b85450;fillColor=#f8cecc;" vertex="1" parent="1">
          <mxGeometry x="440" y="230" width="120" height="40" as="geometry" />
        </mxCell>
        <mxCell id="TbdAM-hodxdKdu0G4XPy-61" value="&lt;font face=&quot;Times New Roman&quot;&gt;&lt;span style=&quot;font-size: 14px&quot;&gt;S.FOTOVOLTAICO&lt;/span&gt;&lt;/font&gt;" style="rounded=1;whiteSpace=wrap;html=1;strokeColor=#b85450;fillColor=#f8cecc;" vertex="1" parent="1">
          <mxGeometry x="570" y="230" width="120" height="40" as="geometry" />
        </mxCell>
        <mxCell id="TbdAM-hodxdKdu0G4XPy-62" value="&lt;font face=&quot;Times New Roman&quot;&gt;&lt;span style=&quot;font-size: 14px&quot;&gt;ALARMAS&lt;/span&gt;&lt;/font&gt;" style="rounded=1;whiteSpace=wrap;html=1;strokeColor=#b85450;fillColor=#f8cecc;" vertex="1" parent="1">
          <mxGeometry x="700" y="230" width="120" height="40" as="geometry" />
        </mxCell>
        <mxCell id="TbdAM-hodxdKdu0G4XPy-63" value="&lt;font face=&quot;Times New Roman&quot;&gt;&lt;span style=&quot;font-size: 14px&quot;&gt;INFO&lt;/span&gt;&lt;/font&gt;" style="rounded=1;whiteSpace=wrap;html=1;strokeColor=#b85450;fillColor=#f8cecc;" vertex="1" parent="1">
          <mxGeometry x="827" y="230" width="120" height="40" as="geometry" />
        </mxCell>
        <mxCell id="TbdAM-hodxdKdu0G4XPy-88" style="edgeStyle=orthogonalEdgeStyle;rounded=0;orthogonalLoop=1;jettySize=auto;html=1;exitX=0.5;exitY=1;exitDx=0;exitDy=0;entryX=0.5;entryY=0;entryDx=0;entryDy=0;" edge="1" parent="1" source="TbdAM-hodxdKdu0G4XPy-70" target="TbdAM-hodxdKdu0G4XPy-71">
          <mxGeometry relative="1" as="geometry" />
        </mxCell>
        <mxCell id="TbdAM-hodxdKdu0G4XPy-70" value="&lt;span style=&quot;font-family: &amp;#34;times new roman&amp;#34; ; font-size: 14px&quot;&gt;Puerto COM&lt;/span&gt;" style="rounded=1;whiteSpace=wrap;html=1;strokeColor=#b85450;fillColor=#f8cecc;" vertex="1" parent="1">
          <mxGeometry x="115" y="250" width="120" height="40" as="geometry" />
        </mxCell>
        <mxCell id="TbdAM-hodxdKdu0G4XPy-87" style="edgeStyle=orthogonalEdgeStyle;rounded=0;orthogonalLoop=1;jettySize=auto;html=1;exitX=0.5;exitY=1;exitDx=0;exitDy=0;entryX=0.5;entryY=0;entryDx=0;entryDy=0;" edge="1" parent="1" source="TbdAM-hodxdKdu0G4XPy-71" target="TbdAM-hodxdKdu0G4XPy-72">
          <mxGeometry relative="1" as="geometry" />
        </mxCell>
        <mxCell id="TbdAM-hodxdKdu0G4XPy-71" value="&lt;span style=&quot;font-family: &amp;#34;times new roman&amp;#34; ; font-size: 14px&quot;&gt;BaudRate&lt;/span&gt;" style="rounded=1;whiteSpace=wrap;html=1;strokeColor=#b85450;fillColor=#f8cecc;" vertex="1" parent="1">
          <mxGeometry x="115" y="310" width="120" height="40" as="geometry" />
        </mxCell>
        <mxCell id="TbdAM-hodxdKdu0G4XPy-86" style="edgeStyle=orthogonalEdgeStyle;rounded=0;orthogonalLoop=1;jettySize=auto;html=1;exitX=0;exitY=0.5;exitDx=0;exitDy=0;entryX=0.5;entryY=0;entryDx=0;entryDy=0;" edge="1" parent="1" source="TbdAM-hodxdKdu0G4XPy-72" target="TbdAM-hodxdKdu0G4XPy-74">
          <mxGeometry relative="1" as="geometry" />
        </mxCell>
        <mxCell id="TbdAM-hodxdKdu0G4XPy-94" style="edgeStyle=orthogonalEdgeStyle;rounded=0;orthogonalLoop=1;jettySize=auto;html=1;exitX=1;exitY=0.5;exitDx=0;exitDy=0;entryX=0;entryY=0.5;entryDx=0;entryDy=0;" edge="1" parent="1" source="TbdAM-hodxdKdu0G4XPy-72" target="TbdAM-hodxdKdu0G4XPy-51">
          <mxGeometry relative="1" as="geometry">
            <Array as="points">
              <mxPoint x="274" y="405" />
              <mxPoint x="274" y="90" />
            </Array>
          </mxGeometry>
        </mxCell>
        <mxCell id="TbdAM-hodxdKdu0G4XPy-72" value="&lt;font face=&quot;Times New Roman&quot;&gt;&lt;span style=&quot;font-size: 14px&quot;&gt;Desea&amp;nbsp;Conectar&lt;/span&gt;&lt;/font&gt;" style="rhombus;whiteSpace=wrap;html=1;fillColor=#dae8fc;strokeColor=#6c8ebf;" vertex="1" parent="1">
          <mxGeometry x="91.37" y="370" width="167.25" height="70" as="geometry" />
        </mxCell>
        <mxCell id="TbdAM-hodxdKdu0G4XPy-73" value="&lt;font face=&quot;Times New Roman&quot;&gt;&lt;span style=&quot;font-size: 14px&quot;&gt;Fallo&amp;nbsp;Comunicación&lt;/span&gt;&lt;/font&gt;" style="rounded=1;whiteSpace=wrap;html=1;strokeColor=#b85450;fillColor=#f8cecc;" vertex="1" parent="1">
          <mxGeometry x="135" y="520" width="120" height="40" as="geometry" />
        </mxCell>
        <mxCell id="TbdAM-hodxdKdu0G4XPy-77" style="edgeStyle=orthogonalEdgeStyle;rounded=0;orthogonalLoop=1;jettySize=auto;html=1;exitX=1;exitY=0.5;exitDx=0;exitDy=0;entryX=0.583;entryY=0.025;entryDx=0;entryDy=0;entryPerimeter=0;" edge="1" parent="1" source="TbdAM-hodxdKdu0G4XPy-74" target="TbdAM-hodxdKdu0G4XPy-73">
          <mxGeometry relative="1" as="geometry" />
        </mxCell>
        <mxCell id="TbdAM-hodxdKdu0G4XPy-84" style="edgeStyle=orthogonalEdgeStyle;rounded=0;orthogonalLoop=1;jettySize=auto;html=1;exitX=0;exitY=0.5;exitDx=0;exitDy=0;entryX=0.5;entryY=0;entryDx=0;entryDy=0;" edge="1" parent="1" source="TbdAM-hodxdKdu0G4XPy-74" target="TbdAM-hodxdKdu0G4XPy-78">
          <mxGeometry relative="1" as="geometry" />
        </mxCell>
        <mxCell id="TbdAM-hodxdKdu0G4XPy-74" value="&lt;font face=&quot;Times New Roman&quot;&gt;&lt;span style=&quot;font-size: 14px&quot;&gt;puertos COM son &lt;br&gt;PAR&lt;/span&gt;&lt;/font&gt;" style="rhombus;whiteSpace=wrap;html=1;fillColor=#dae8fc;strokeColor=#6c8ebf;" vertex="1" parent="1">
          <mxGeometry x="10" y="430" width="167.25" height="70" as="geometry" />
        </mxCell>
        <mxCell id="TbdAM-hodxdKdu0G4XPy-80" style="edgeStyle=orthogonalEdgeStyle;rounded=0;orthogonalLoop=1;jettySize=auto;html=1;exitX=1;exitY=0.5;exitDx=0;exitDy=0;entryX=0.625;entryY=0;entryDx=0;entryDy=0;entryPerimeter=0;" edge="1" parent="1" source="TbdAM-hodxdKdu0G4XPy-78" target="TbdAM-hodxdKdu0G4XPy-79">
          <mxGeometry relative="1" as="geometry" />
        </mxCell>
        <mxCell id="TbdAM-hodxdKdu0G4XPy-83" style="edgeStyle=orthogonalEdgeStyle;rounded=0;orthogonalLoop=1;jettySize=auto;html=1;exitX=0;exitY=0.5;exitDx=0;exitDy=0;entryX=0;entryY=0.5;entryDx=0;entryDy=0;" edge="1" parent="1" source="TbdAM-hodxdKdu0G4XPy-78" target="TbdAM-hodxdKdu0G4XPy-81">
          <mxGeometry relative="1" as="geometry" />
        </mxCell>
        <mxCell id="TbdAM-hodxdKdu0G4XPy-85" style="edgeStyle=orthogonalEdgeStyle;rounded=0;orthogonalLoop=1;jettySize=auto;html=1;exitX=0;exitY=0.5;exitDx=0;exitDy=0;entryX=0;entryY=0.5;entryDx=0;entryDy=0;" edge="1" parent="1" source="TbdAM-hodxdKdu0G4XPy-78" target="TbdAM-hodxdKdu0G4XPy-82">
          <mxGeometry relative="1" as="geometry" />
        </mxCell>
        <mxCell id="TbdAM-hodxdKdu0G4XPy-91" style="edgeStyle=orthogonalEdgeStyle;rounded=0;orthogonalLoop=1;jettySize=auto;html=1;exitX=0;exitY=0.5;exitDx=0;exitDy=0;entryX=0;entryY=0.5;entryDx=0;entryDy=0;" edge="1" parent="1" source="TbdAM-hodxdKdu0G4XPy-78" target="TbdAM-hodxdKdu0G4XPy-90">
          <mxGeometry relative="1" as="geometry" />
        </mxCell>
        <mxCell id="TbdAM-hodxdKdu0G4XPy-78" value="&lt;font face=&quot;Times New Roman&quot;&gt;&lt;span style=&quot;font-size: 14px&quot;&gt;Velocidad BaudRate es &lt;br&gt;PAR&lt;/span&gt;&lt;/font&gt;" style="rhombus;whiteSpace=wrap;html=1;fillColor=#dae8fc;strokeColor=#6c8ebf;" vertex="1" parent="1">
          <mxGeometry x="3.63" y="560" width="180" height="70" as="geometry" />
        </mxCell>
        <mxCell id="TbdAM-hodxdKdu0G4XPy-79" value="&lt;font face=&quot;Times New Roman&quot;&gt;&lt;span style=&quot;font-size: 14px&quot;&gt;Fallo&amp;nbsp;Comunicación&lt;/span&gt;&lt;/font&gt;" style="rounded=1;whiteSpace=wrap;html=1;strokeColor=#b85450;fillColor=#f8cecc;" vertex="1" parent="1">
          <mxGeometry x="135" y="640" width="120" height="40" as="geometry" />
        </mxCell>
        <mxCell id="TbdAM-hodxdKdu0G4XPy-81" value="&lt;font face=&quot;times new roman&quot;&gt;&lt;span style=&quot;font-size: 14px&quot;&gt;Conexión&amp;nbsp;exitosa&lt;/span&gt;&lt;/font&gt;" style="rounded=1;whiteSpace=wrap;html=1;strokeColor=#b85450;fillColor=#f8cecc;" vertex="1" parent="1">
          <mxGeometry x="34" y="700" width="120" height="40" as="geometry" />
        </mxCell>
        <mxCell id="TbdAM-hodxdKdu0G4XPy-82" value="&lt;font face=&quot;times new roman&quot;&gt;&lt;span style=&quot;font-size: 14px&quot;&gt;Estado = Conectado&lt;/span&gt;&lt;/font&gt;" style="rounded=1;whiteSpace=wrap;html=1;strokeColor=#b85450;fillColor=#f8cecc;" vertex="1" parent="1">
          <mxGeometry x="34" y="750" width="120" height="40" as="geometry" />
        </mxCell>
        <mxCell id="TbdAM-hodxdKdu0G4XPy-95" style="edgeStyle=orthogonalEdgeStyle;rounded=0;orthogonalLoop=1;jettySize=auto;html=1;exitX=0.5;exitY=1;exitDx=0;exitDy=0;entryX=0;entryY=0.5;entryDx=0;entryDy=0;" edge="1" parent="1" source="TbdAM-hodxdKdu0G4XPy-90" target="TbdAM-hodxdKdu0G4XPy-58">
          <mxGeometry relative="1" as="geometry" />
        </mxCell>
        <mxCell id="TbdAM-hodxdKdu0G4XPy-90" value="&lt;font face=&quot;times new roman&quot;&gt;&lt;span style=&quot;font-size: 14px&quot;&gt;Send_Data = True&lt;br&gt;Receive_Data = True&lt;br&gt;&lt;/span&gt;&lt;/font&gt;" style="rounded=1;whiteSpace=wrap;html=1;strokeColor=#b85450;fillColor=#f8cecc;" vertex="1" parent="1">
          <mxGeometry x="30.450000000000003" y="800" width="126.37" height="40" as="geometry" />
        </mxCell>
        <mxCell id="TbdAM-hodxdKdu0G4XPy-93" value="&lt;font face=&quot;Times New Roman&quot; style=&quot;font-size: 14px&quot;&gt;Recuperar datos almacenados Sp, SpMin y SpMAx , inicializar graficas en 0&amp;nbsp;&lt;/font&gt;" style="shape=process;whiteSpace=wrap;html=1;backgroundOutline=1;fillColor=#d5e8d4;strokeColor=#82b366;" vertex="1" parent="1">
          <mxGeometry x="236.88" y="-10" width="228.75" height="60" as="geometry" />
        </mxCell>
      </root>
    </mxGraphModel>
  </diagram>
</mxfile>
